OpenSim_Sub02_CSStiffKnee_RCS.mot
version=1
nRows=40
nColumns=11
inDegrees=no
endheader
time	Top_Thigh	Med_Thigh	Bot_Thigh	Top_Shank	2nd_Top_Shank	2nd_Bot_Shank	Bot_Shank	BNOx	BNOy	BNOZ
0	1334.14882912	1289.17307307	1201.00000000	1119.99994388	1225.99886291	1020.00000000	1006.86170021	46.37929303	-78.80926916	151.12214039
0.01000000	1333.90589865	1288.88964472	1201.00000000	1120.00005240	1226.00109634	1020.00000000	1007.08773205	46.38046666	-78.81048282	151.11860675
0.02000000	1333.69032277	1288.63406420	1201.00000000	1120.00023464	1226.00499840	1020.00000000	1007.29011799	46.38158165	-78.81164924	151.11535243
0.03000000	1333.50182004	1288.40656379	1201.00000000	1120.00048423	1226.01042784	1020.00000000	1007.46912059	46.38260737	-78.81276524	151.11246982
0.04000000	1333.33909346	1288.20597988	1201.00000000	1120.00079387	1226.01722027	1020.00000000	1007.62576812	46.38352446	-78.81384040	151.11001497
0.05000000	1333.20084607	1288.03114887	1201.00000000	1120.00115624	1226.02521131	1020.00000000	1007.76108887	46.38431356	-78.81488427	151.10804398
0.06000000	1333.08578089	1287.88090718	1201.00000000	1120.00156403	1226.03423658	1020.00000000	1007.87611112	46.38495534	-78.81590641	151.10661289
0.07000000	1332.99260093	1287.75409118	1201.00000000	1120.00200996	1226.04413169	1020.00000000	1007.97186315	46.38543044	-78.81691637	151.10577780
0.08000000	1332.92000923	1287.64953730	1201.00000000	1120.00248670	1226.05473227	1020.00000000	1008.04937324	46.38571951	-78.81792372	151.10559476
0.09000000	1332.86670881	1287.56608192	1200.99999999	1120.00298695	1226.06587393	1020.00000000	1008.10966967	46.38580320	-78.81893801	151.10611984
0.10000000	1332.83140268	1287.50256144	1200.99999999	1120.00350341	1226.07739228	1020.00000000	1008.15378073	46.38566215	-78.81996880	151.10740913
0.11000000	1332.81279388	1287.45781227	1200.99999999	1120.00402876	1226.08912296	1020.00000000	1008.18273469	46.38527702	-78.82102565	151.10951868
0.12000000	1332.80958542	1287.43067081	1200.99999999	1120.00455571	1226.10090157	1020.00000000	1008.19755984	46.38462845	-78.82211811	151.11250457
0.13000000	1332.82048033	1287.41997345	1200.99999999	1120.00507695	1226.11256373	1020.00000000	1008.19928445	46.38369710	-78.82325575	151.11642287
0.14000000	1332.84418163	1287.42455660	1200.99999999	1120.00558517	1226.12394505	1019.99999999	1008.18893682	46.38246361	-78.82444812	151.12132965
0.15000000	1332.87939235	1287.44325666	1200.99999999	1120.00607306	1226.13488117	1019.99999999	1008.16754522	46.38090863	-78.82570478	151.12728097
0.16000000	1332.92481550	1287.47491003	1200.99999999	1120.00653333	1226.14520769	1019.99999999	1008.13613793	46.37901282	-78.82703529	151.13433292
0.17000000	1332.97915411	1287.51835310	1200.99999999	1120.00695865	1226.15476024	1019.99999999	1008.09574324	46.37675681	-78.82844921	151.14254157
0.18000000	1333.04111121	1287.57242228	1200.99999999	1120.00734173	1226.16337442	1019.99999999	1008.04738942	46.37412127	-78.82995609	151.15196297
0.19000000	1333.10938981	1287.63595397	1200.99999998	1120.00767526	1226.17088586	1019.99999999	1007.99210476	46.37108684	-78.83156550	151.16265320
0.20000000	1333.18269294	1287.70778456	1200.99999998	1120.00795194	1226.17713018	1019.99999999	1007.93091754	46.36763416	-78.83328699	151.17466834
0.21000000	1333.25972362	1287.78675047	1200.99999998	1120.00816445	1226.18194299	1019.99999999	1007.86485604	46.36374389	-78.83513011	151.18806445
0.22000000	1333.33918487	1287.87168808	1200.99999998	1120.00830550	1226.18515991	1019.99999999	1007.79494854	46.35939668	-78.83710444	151.20289761
0.23000000	1333.41977973	1287.96143380	1200.99999998	1120.00836777	1226.18661657	1019.99999999	1007.72222332	46.35457317	-78.83921952	151.21922388
0.24000000	1333.50021120	1288.05482403	1200.99999998	1120.00834396	1226.18614857	1019.99999999	1007.64770867	46.34925402	-78.84148491	151.23709933
0.25000000	1333.57918232	1288.15069516	1200.99999998	1120.00822676	1226.18359153	1019.99999999	1007.57243286	46.34341987	-78.84391018	151.25658004
0.26000000	1333.65539611	1288.24788361	1200.99999998	1120.00800887	1226.17878107	1019.99999999	1007.49742419	46.33705137	-78.84650487	151.27772208
0.27000000	1333.72755558	1288.34522577	1200.99999998	1120.00768299	1226.17155282	1019.99999999	1007.42371092	46.33012918	-78.84927855	151.30058151
0.28000000	1333.79436377	1288.44155803	1200.99999999	1120.00724179	1226.16174238	1019.99999999	1007.35232134	46.32263394	-78.85224078	151.32521441
0.29000000	1333.85452370	1288.53571680	1200.99999999	1120.00667799	1226.14918538	1019.99999999	1007.28428374	46.31454630	-78.85540112	151.35167685
0.30000000	1333.90673838	1288.62653849	1200.99999999	1120.00598427	1226.13371743	1019.99999999	1007.22062639	46.30584690	-78.85876911	151.38002490
0.31000000	1333.94971085	1288.71285948	1200.99999999	1120.00515333	1226.11517415	1020.00000000	1007.16237757	46.29651641	-78.86235433	151.41031462
0.32000000	1333.98214412	1288.79351619	1200.99999999	1120.00417785	1226.09339116	1020.00000000	1007.11056557	46.28653546	-78.86616633	151.44260210
0.33000000	1334.00274121	1288.86734500	1200.99999999	1120.00305055	1226.06820407	1020.00000000	1007.06621867	46.27588472	-78.87021466	151.47694339
0.34000000	1334.01020516	1288.93318233	1201.00000000	1120.00176409	1226.03944851	1020.00000000	1007.03036515	46.26454481	-78.87450889	151.51339458
0.35000000	1334.00323898	1288.98986456	1201.00000000	1120.00031120	1226.00696009	1020.00000000	1007.00403328	46.25249641	-78.87905857	151.55201172
0.36000000	1333.98082257	1289.03639918	1201.00000000	1119.99868980	1225.97069214	1020.00000000	1006.98804531	46.23973074	-78.88387114	151.59283413
0.37000000	1333.94398202	1289.07305803	1201.00000001	1119.99693666	1225.93146786	1020.00000000	1006.98170055	46.22631740	-78.88893842	151.63577721
0.38000000	1333.89466056	1289.10067964	1201.00000001	1119.99510593	1225.89050037	1020.00000000	1006.98361576	46.21236106	-78.89424520	151.68070082
0.39000000	1333.83480574	1289.12010520	1201.00000001	1119.99325187	1225.84900463	1020.00000001	1006.99240449	46.19796658	-78.89977624	151.72746457
